<?xml version="1.0" standalone="no"?>
<!DOCTYPE svg PUBLIC "-//W3C//DTD SVG 20010904//EN"
 "http://www.w3.org/TR/2001/REC-SVG-20010904/DTD/svg10.dtd">
<svg version="1.0" xmlns="http://www.w3.org/2000/svg"
 width="806.000000pt" height="806.000000pt" viewBox="0 0 806.000000 806.000000"
 preserveAspectRatio="xMidYMid meet">
<metadata>
Created by potrace 1.11, written by Peter Selinger 2001-2013
</metadata>
<g transform="translate(0.000000,806.000000) scale(0.100000,-0.100000)"
fill="#000000" stroke="none">
<path d="M2922 5388 c-7 -7 -12 -34 -12 -60 0 -32 -4 -48 -12 -48 -9 0 -9 -3
-2 -8 12 -8 14 -53 2 -46 -4 3 -8 0 -8 -5 0 -6 -4 -11 -10 -11 -5 0 -10 7 -10
15 0 8 5 15 11 15 19 0 -1 18 -26 22 -29 6 -32 0 -7 -18 15 -12 12 -13 -28
-14 -25 0 -55 7 -66 15 -12 8 -32 12 -44 10 -13 -3 -29 0 -35 5 -13 11 -136
10 -150 -1 -14 -10 -37 4 -33 21 4 16 -118 51 -150 43 -12 -3 -27 -13 -32 -23
-8 -14 -19 -17 -57 -13 -27 2 -59 5 -73 6 -14 0 -29 6 -35 12 -17 20 -44 25
-57 11 -16 -16 -38 -10 -38 11 0 10 -6 14 -20 10 -13 -3 -20 0 -20 9 0 8 -7
14 -15 14 -8 0 -15 -5 -15 -11 0 -5 5 -7 12 -3 7 5 9 2 5 -9 -4 -12 7 -20 51
-34 31 -10 62 -18 67 -18 6 0 12 -3 15 -6 3 -3 26 -13 51 -21 34 -12 50 -13
58 -5 17 17 43 18 37 1 -4 -9 4 -18 21 -25 21 -8 29 -6 45 11 22 24 30 26 22
5 -4 -8 -11 -15 -18 -15 -21 -1 28 -30 51 -30 15 0 23 -6 24 -17 0 -11 3 -13
6 -5 2 6 15 12 28 12 16 0 25 -7 29 -25 6 -25 33 -31 47 -12 7 10 48 -5 48
-18 1 -5 24 -10 51 -10 31 0 54 -5 59 -13 4 -7 14 -10 22 -7 19 7 43 -10 35
-24 -4 -6 -24 -11 -44 -11 -27 0 -33 -3 -22 -10 15 -9 16 -9 -35 -25 -21 -6
-68 13 -60 25 4 7 13 7 26 0 25 -14 25 1 -1 23 -11 9 -20 12 -20 7 0 -7 -7 -7
-20 0 -18 10 -19 8 -10 -15 8 -20 6 -25 -6 -25 -11 0 -14 5 -10 16 6 15 4 15
-10 3 -16 -13 -16 -12 -4 10 11 21 10 23 -4 18 -9 -4 -16 -2 -16 3 0 6 -9 10
-21 10 -16 0 -19 -4 -14 -20 6 -18 4 -18 -20 -6 -15 8 -33 24 -42 35 -8 12
-18 19 -23 16 -5 -3 -19 -1 -31 5 -11 7 -33 13 -48 15 -14 2 -31 4 -36 5 -24
5 -37 -1 -31 -15 3 -8 1 -15 -5 -15 -5 0 -12 7 -15 15 -4 8 -10 13 -14 10 -5
-3 -13 2 -18 10 -5 9 -15 17 -23 19 -8 1 -30 9 -50 18 -20 9 -47 19 -60 23
-31 10 -50 25 -44 35 3 5 -4 6 -15 3 -17 -5 -26 -27 -21 -55 0 -5 -5 -9 -12
-9 -26 -3 -43 4 -60 23 -18 18 -20 18 -31 2 -7 -9 -18 -14 -23 -11 -6 4 -16 0
-23 -8 -11 -13 -10 -15 6 -9 18 5 18 5 1 -6 -14 -9 -22 -9 -33 0 -7 7 -14 9
-14 6 0 -4 -16 5 -35 19 -30 23 -64 27 -51 6 3 -4 -5 -7 -17 -6 -12 1 -22 8
-22 16 0 9 -12 14 -33 15 -30 1 -31 0 -17 -16 8 -9 12 -20 8 -25 -5 -4 -3 -6
3 -2 5 3 23 -7 38 -24 15 -16 32 -27 37 -23 5 3 9 0 9 -6 0 -7 7 -10 15 -6 8
3 15 1 15 -4 0 -16 73 -42 106 -38 41 5 66 -26 31 -37 -12 -4 -29 -9 -38 -10
-9 -1 -22 -6 -29 -10 -9 -5 -11 -4 -6 3 5 8 0 12 -13 12 -12 0 -21 5 -21 12 0
6 -8 4 -19 -6 -11 -10 -22 -13 -25 -8 -3 6 0 13 6 15 7 3 0 6 -17 6 -16 1 -40
4 -52 7 -17 5 -23 2 -23 -10 0 -9 6 -13 14 -10 8 3 16 -3 19 -15 3 -12 13 -21
22 -21 9 0 13 -5 9 -11 -4 -8 1 -9 16 -4 15 5 20 4 16 -4 -4 -6 -2 -11 3 -11
6 0 11 4 11 10 0 5 7 7 15 4 8 -4 12 -10 9 -15 -3 -5 4 -9 16 -9 12 0 19 -3
17 -7 -3 -5 9 -9 26 -9 18 -1 43 -3 57 -5 14 -1 32 1 41 5 11 5 26 -1 44 -18
22 -21 31 -24 47 -15 16 8 23 8 30 -2 7 -11 11 -11 15 -1 7 17 23 15 23 -3 0
-10 10 -15 30 -15 41 0 99 -25 107 -46 4 -12 -3 -26 -26 -45 -31 -25 -87 -46
-75 -28 3 5 -5 9 -18 9 -18 0 -20 -2 -8 -10 9 -6 10 -10 3 -10 -6 0 -14 4 -17
9 -3 5 -28 8 -56 7 -28 -2 -47 1 -44 6 6 9 -104 3 -113 -6 -3 -3 8 -8 23 -11
48 -11 54 -14 54 -28 0 -17 -94 -12 -154 9 -40 13 -56 11 -56 -8 0 -6 10 -8
22 -5 14 4 29 0 40 -10 10 -9 18 -12 18 -8 0 4 8 -1 18 -13 12 -13 35 -23 67
-27 96 -11 111 -20 75 -43 -13 -8 -20 -8 -20 -2 0 7 -6 8 -19 0 -11 -5 -22 -6
-25 -1 -7 11 -56 11 -56 -1 0 -5 -5 -6 -12 -2 -7 5 -28 8 -48 7 -19 0 -43 4
-53 9 -12 6 -23 6 -32 -2 -10 -8 -19 -8 -34 0 -12 6 -21 8 -21 4 0 -3 -7 0
-17 7 -13 11 -17 11 -20 2 -5 -15 -33 -17 -33 -3 0 18 -22 10 -27 -9 -3 -12
-11 -17 -19 -14 -8 3 -14 0 -14 -6 0 -6 7 -11 16 -11 11 0 14 -5 10 -16 -4
-11 -1 -14 12 -13 25 4 63 -11 57 -22 -5 -8 19 -6 79 6 30 6 49 -13 31 -31 -7
-8 -18 -14 -24 -14 -5 0 -17 -8 -27 -17 -10 -10 -25 -18 -33 -18 -9 0 -17 -8
-19 -17 -2 -13 2 -16 17 -13 12 2 26 7 33 11 6 4 8 3 4 -4 -3 -6 -2 -13 4 -17
5 -3 10 -11 10 -16 0 -11 -51 -3 -80 12 -27 14 -55 22 -86 24 -16 1 -40 8 -52
14 -25 13 -30 0 -7 -19 8 -7 15 -17 15 -23 0 -5 -8 -3 -17 5 -26 23 -84 33
-94 17 -6 -11 -11 -11 -20 -2 -9 9 -18 4 -40 -18 -16 -16 -29 -35 -29 -42 0
-21 31 -59 45 -53 7 2 21 -4 30 -15 11 -11 38 -21 66 -25 32 -4 49 -11 49 -20
0 -8 6 -14 13 -15 11 0 45 -7 77 -14 8 -2 27 -4 41 -4 19 -1 34 -12 53 -39 26
-38 37 -72 13 -40 -16 21 -53 28 -49 9 2 -9 -3 -11 -14 -7 -10 4 -23 -1 -33
-12 -9 -11 -29 -23 -46 -29 -16 -5 -29 -14 -28 -18 1 -5 25 -17 55 -27 29 -10
65 -25 81 -33 15 -9 27 -13 27 -9 0 4 6 0 13 -11 8 -10 19 -15 25 -11 5 3 12
1 14 -6 2 -6 15 -13 29 -15 13 -2 33 -13 44 -25 l20 -22 -21 17 c-18 15 -23
15 -32 4 -7 -8 -8 -18 -4 -23 4 -5 -2 -2 -13 7 -26 20 -110 55 -154 63 -28 5
-31 4 -22 -8 9 -11 6 -15 -14 -20 -14 -4 -30 -4 -35 -1 -6 4 -10 -5 -10 -18 0
-30 62 -83 147 -128 32 -17 62 -34 68 -39 5 -4 29 -10 53 -13 60 -6 124 -67
71 -67 -11 0 -17 -5 -14 -10 3 -6 -1 -13 -10 -17 -10 -3 -21 0 -26 8 -5 8 -9
11 -9 6 0 -4 -18 4 -40 18 -38 24 -47 22 -41 -9 1 -5 -5 -4 -13 4 -12 9 -16 9
-16 1 0 -7 -5 -9 -10 -6 -8 5 -7 11 1 21 9 12 6 14 -20 14 -17 0 -31 -4 -31
-9 0 -16 72 -91 81 -85 5 3 9 0 9 -6 0 -6 5 -8 10 -5 6 3 17 -1 26 -9 8 -9 23
-16 32 -17 14 0 13 -2 -3 -8 -13 -5 3 -8 41 -7 47 1 64 -2 72 -14 8 -13 5 -16
-12 -18 -11 0 -22 -5 -24 -11 -2 -6 -15 -6 -34 0 -17 4 -35 6 -39 3 -5 -3 -9
0 -9 5 0 8 -6 7 -19 -1 -14 -8 -23 -9 -33 -1 -7 6 -28 14 -45 18 -26 5 -33 3
-33 -9 0 -9 6 -13 14 -10 7 3 16 -2 19 -10 4 -9 14 -16 23 -16 10 0 14 -5 10
-15 -3 -8 -1 -15 4 -15 6 0 10 5 10 10 0 6 5 10 10 10 6 0 10 -6 10 -14 0 -8
4 -18 10 -21 5 -3 7 0 4 8 -3 8 2 14 11 14 9 0 14 -5 12 -12 -3 -6 27 -22 70
-37 73 -25 75 -25 82 -6 7 18 8 18 34 -8 21 -21 33 -25 57 -21 18 4 30 2 30
-4 0 -6 9 -8 20 -4 11 4 20 3 19 -2 -4 -22 2 -35 15 -30 11 5 11 0 -1 -25 -12
-23 -20 -28 -36 -24 -12 3 -27 0 -34 -6 -10 -8 -13 -7 -13 3 0 10 -3 10 -12 1
-16 -16 -28 -15 -28 3 0 8 -7 15 -15 15 -8 0 -15 -6 -15 -12 0 -10 -2 -10 -8
-1 -4 7 -17 11 -29 10 -12 0 -19 -5 -17 -9 3 -4 -1 -8 -8 -8 -7 -1 5 -16 26
-34 23 -20 36 -38 32 -45 -5 -8 -12 -9 -19 -2 -7 5 -34 9 -62 8 -30 -1 -63 5
-82 15 -19 9 -35 12 -39 7 -10 -17 7 -29 32 -23 15 4 24 2 24 -6 0 -6 5 -10
12 -8 6 2 21 -6 33 -17 13 -14 40 -24 73 -29 78 -10 84 -14 64 -37 -20 -23
-40 -26 -21 -2 13 14 12 15 -6 6 -23 -11 -174 -11 -192 0 -7 5 -27 5 -45 2
-18 -4 -46 -1 -62 5 -22 8 -31 8 -36 0 -5 -8 -13 -6 -24 6 -15 14 -19 15 -27
3 -5 -8 -9 -16 -9 -19 0 -3 -10 -6 -21 -7 -20 -2 -20 -1 -3 11 17 13 16 13 -8
11 -60 -7 -64 -30 -8 -39 23 -4 38 -11 35 -16 -6 -9 8 -14 29 -11 4 1 14 -3
20 -9 7 -5 16 -7 19 -3 4 3 13 0 22 -7 9 -7 27 -10 45 -7 41 9 62 -1 55 -24
-5 -16 -1 -19 27 -19 38 0 63 -13 54 -28 -11 -18 43 -24 60 -7 12 12 19 13 30
4 7 -6 12 -16 11 -22 -1 -6 18 -16 43 -21 25 -6 50 -14 55 -17 6 -3 29 -5 53
-4 23 0 42 -2 42 -5 0 -4 6 -7 13 -8 6 0 38 -4 70 -8 45 -5 57 -4 57 7 1 10 3
10 10 -3 7 -10 17 -14 32 -10 16 4 19 2 13 -9 -7 -12 -6 -12 9 0 13 11 19 12
25 3 4 -7 32 -14 62 -17 30 -3 113 -14 184 -25 300 -45 471 -54 1040 -54 297
0 513 -2 480 -6 -33 -3 -66 -9 -74 -14 -10 -6 -12 -6 -7 2 8 13 -4 15 -30 5
-16 -6 -16 -7 2 -14 14 -5 10 -7 -14 -6 -21 0 -29 3 -20 8 7 5 -50 6 -127 2
-190 -9 -488 -8 -727 1 -143 6 -198 5 -198 -3 0 -6 -5 -11 -11 -11 -6 0 -9 7
-5 15 4 11 -2 15 -22 16 -15 0 -38 2 -52 4 -14 2 -56 4 -94 6 -39 1 -88 6
-110 10 -23 4 -75 10 -116 13 -41 3 -85 7 -97 10 -16 3 -23 0 -23 -10 0 -8 -5
-14 -11 -14 -6 0 -9 7 -5 15 3 8 1 15 -3 15 -5 0 -11 -7 -15 -15 -6 -17 -66
-21 -66 -4 0 8 -4 9 -13 0 -8 -6 -17 -8 -21 -4 -10 10 -196 40 -196 32 0 -10
-94 -7 -107 4 -7 5 -50 11 -96 13 -46 1 -96 8 -111 14 -34 12 -36 12 -36 0 0
-5 8 -10 19 -10 10 0 24 -7 31 -15 7 -8 16 -12 21 -9 5 3 9 0 9 -5 0 -6 20
-11 46 -11 38 0 45 -3 40 -16 -3 -8 -2 -12 4 -9 11 7 140 -16 140 -25 0 -4 17
-4 38 0 41 7 131 -12 143 -31 4 -8 34 -13 78 -13 39 -1 71 -4 71 -7 0 -9 289
-53 297 -46 2 3 24 0 50 -4 242 -46 968 -55 1458 -19 180 13 551 49 630 62 39
6 138 12 220 14 188 5 236 9 283 25 20 7 46 14 57 15 11 2 30 5 42 8 11 2 42
8 67 11 26 4 49 11 52 16 3 5 10 9 15 9 5 0 2 -11 -7 -24 -9 -15 -21 -22 -30
-19 -8 3 -14 0 -14 -6 0 -14 27 -15 35 -1 3 6 15 10 26 10 10 0 19 4 19 10 0
5 3 9 8 9 16 -3 32 1 31 9 -3 18 2 32 11 32 5 0 7 -6 4 -14 -4 -11 1 -13 28
-7 18 4 42 12 53 18 11 6 31 15 45 21 14 5 42 18 63 27 22 9 47 15 56 12 10
-2 23 4 29 14 18 29 78 52 117 46 19 -3 35 -2 35 4 0 5 7 9 15 9 7 0 18 7 23
17 7 12 18 15 47 10 32 -5 41 -2 78 32 25 22 54 38 70 39 33 2 107 34 162 70
91 59 144 130 98 129 -52 0 -56 2 -42 20 13 15 10 15 -26 9 -51 -10 -137 -45
-151 -63 -9 -11 -13 -9 -17 9 -6 22 -6 22 -28 2 l-22 -19 12 23 c6 12 16 23
21 23 15 2 49 6 61 8 5 0 7 5 4 11 -3 5 0 7 9 4 8 -3 19 3 26 15 6 11 14 20
18 19 4 -1 14 2 22 5 8 3 41 14 73 24 64 20 72 33 30 47 -15 5 -36 17 -47 28
-11 10 -27 16 -34 13 -10 -3 -12 0 -8 10 4 11 -1 15 -19 15 -16 0 -25 -6 -25
-15 0 -8 -4 -15 -10 -15 -18 0 -10 25 18 51 19 19 47 30 95 39 37 7 74 18 80
25 7 7 33 15 58 19 26 4 52 15 62 27 10 11 22 17 26 14 9 -5 51 40 51 56 0 4
-14 22 -31 39 -22 21 -34 28 -39 20 -5 -9 -9 -9 -14 -1 -9 14 -79 9 -100 -8
-9 -7 -16 -9 -16 -3 0 5 7 15 15 22 21 17 12 24 -13 11 -12 -6 -36 -13 -54
-15 -37 -5 -58 -12 -106 -33 -36 -16 -54 -10 -45 13 4 11 14 14 34 10 30 -6
45 13 26 34 -9 10 -9 11 1 6 7 -4 19 -3 26 3 8 7 18 10 22 9 5 -2 10 2 12 7 2
6 12 13 23 17 11 4 17 12 14 18 -3 5 -1 10 4 10 6 0 11 -4 11 -9 0 -12 28 -22
34 -13 8 14 -9 31 -36 36 -15 2 -27 2 -27 -2 3 -21 -3 -24 -17 -6 -11 13 -17
15 -20 7 -6 -15 -44 -18 -44 -4 0 6 -13 6 -33 0 -19 -5 -45 -9 -58 -9 -13 1
-50 -1 -81 -4 -32 -3 -58 -1 -58 3 0 5 -17 5 -37 0 -21 -4 -46 -6 -57 -3 -13
4 -16 2 -11 -6 5 -8 0 -7 -14 2 -20 12 -30 40 -13 36 20 -5 120 16 142 30 14
9 29 17 33 17 4 0 12 6 16 14 5 8 16 11 30 6 16 -5 21 -2 21 10 0 11 -5 15
-14 12 -40 -15 -100 -28 -111 -23 -8 3 -28 1 -44 -4 -31 -9 -31 -8 -31 31 0
34 3 39 23 39 22 0 61 19 42 21 -95 9 -106 9 -99 -2 5 -8 1 -10 -14 -7 -15 4
-22 0 -26 -15 -5 -20 -5 -20 -24 3 -16 20 -21 21 -41 10 -15 -8 -21 -8 -17 -1
4 6 0 11 -9 11 -9 0 -13 -5 -9 -11 4 -7 1 -10 -7 -7 -8 3 -14 19 -14 40 -1 31
2 34 22 30 17 -3 23 0 23 14 0 16 2 17 10 4 8 -12 12 -12 18 -2 6 9 18 11 37
6 19 -5 32 -2 39 7 22 27 50 37 61 23 8 -11 23 -9 79 12 38 14 75 33 83 42 11
15 14 15 23 2 7 -12 10 -12 10 -1 0 8 6 11 16 7 8 -3 13 -2 10 3 -3 5 3 11 14
14 11 3 20 13 20 22 0 12 6 16 20 12 13 -3 20 0 20 10 0 11 -7 13 -32 7 -18
-4 -44 -7 -58 -6 -20 1 -22 0 -10 -8 8 -5 10 -10 5 -10 -6 0 -16 5 -23 12 -9
9 -12 9 -12 0 0 -7 -9 -12 -21 -12 -12 0 -17 -4 -13 -11 4 -7 -1 -7 -16 1 -30
16 -93 24 -85 10 3 -5 -2 -10 -11 -10 -15 0 -13 5 10 29 17 18 34 27 46 24 22
-6 120 25 120 37 0 5 7 7 15 4 8 -4 15 -1 15 5 0 6 4 10 9 8 4 -1 29 20 54 46
l46 48 -39 -3 c-29 -1 -37 -5 -29 -14 6 -8 5 -13 -5 -17 -8 -3 -20 1 -26 9
-17 20 -31 18 -63 -11 -15 -14 -27 -23 -27 -20 0 3 -9 1 -20 -5 -14 -8 -20 -8
-20 0 0 6 -4 8 -10 5 -6 -4 -7 1 -3 11 5 13 2 15 -14 10 -14 -5 -23 -1 -27 10
-6 15 -9 15 -29 -5 -13 -11 -34 -21 -46 -21 -21 0 -22 2 -10 17 8 9 9 14 3 10
-16 -9 -25 32 -13 55 11 20 31 23 60 8 13 -7 19 -7 19 0 0 5 4 10 9 10 4 0 24
15 43 33 25 23 46 33 74 35 21 2 46 9 55 17 8 8 22 15 29 15 17 0 107 60 148
99 49 47 41 66 -25 64 -7 -1 -13 2 -13 6 0 4 6 13 13 20 10 10 6 11 -18 5 -16
-3 -48 -13 -70 -21 -22 -8 -49 -17 -60 -20 -11 -4 -25 -14 -32 -22 -11 -14
-12 -14 -13 2 0 18 -19 23 -35 10 -6 -5 -1 2 10 13 11 12 23 19 28 17 13 -8
47 8 41 19 -5 7 -2 8 6 3 7 -4 16 -2 21 6 4 8 12 14 16 15 4 0 17 4 28 8 34
13 99 38 125 48 l25 10 -25 14 c-14 7 -33 13 -43 14 -10 0 -15 5 -12 10 3 6
-1 10 -9 10 -9 0 -16 4 -16 10 0 5 -7 6 -17 3 -11 -4 -14 -3 -9 5 12 20 -35
14 -50 -5 -7 -10 -15 -15 -18 -12 -8 8 45 77 64 83 8 3 33 7 55 10 70 10 95
17 90 26 -7 11 20 20 56 20 16 0 38 9 49 20 11 11 29 20 40 20 27 0 51 47 38
75 -13 29 -48 51 -58 35 -5 -8 -10 -7 -19 4 -15 18 -67 11 -93 -12 -10 -8 -18
-10 -18 -5 0 6 7 16 15 23 26 22 16 29 -19 15 -18 -8 -43 -12 -55 -10 -11 2
-28 -3 -36 -12 -9 -8 -18 -13 -21 -10 -3 3 -21 -1 -40 -9 -39 -16 -62 -10 -43
12 7 9 20 12 36 8 20 -5 24 -3 21 11 -1 10 -12 19 -22 21 -10 1 -22 7 -25 13
-3 5 -18 13 -34 16 -15 4 -25 11 -22 15 3 4 -14 4 -37 -2 -24 -5 -45 -14 -49
-20 -4 -7 -9 -6 -14 1 -5 9 -10 9 -21 0 -11 -9 -14 -8 -14 4 0 8 6 18 13 20 9
4 9 6 0 6 -7 1 -10 9 -7 19 4 12 0 10 -15 -7 -12 -13 -21 -18 -21 -12 0 7 -5
9 -10 6 -6 -4 -8 -11 -5 -16 6 -8 -15 -13 -42 -10 -19 2 -26 -19 -11 -36 8
-10 8 -14 1 -10 -6 4 -14 3 -18 -3 -3 -5 -14 -10 -25 -10 -10 0 -20 -7 -24
-15 -3 -8 -15 -15 -26 -15 -19 0 -19 1 -2 18 10 9 30 23 45 31 15 8 27 18 27
23 0 13 -16 9 -30 -7 -7 -8 -16 -13 -20 -10 -4 3 -10 -2 -14 -10 -3 -10 -19
-15 -42 -15 -23 0 -42 -7 -51 -17 -8 -10 -12 -13 -8 -6 4 8 -3 8 -22 -2 -36
-19 -43 -19 -43 2 0 15 -2 14 -14 -3 -8 -10 -18 -16 -22 -12 -4 4 -20 -2 -35
-13 -16 -11 -29 -17 -29 -13 0 3 -8 0 -17 -7 -14 -12 -15 -12 -9 0 7 10 3 12
-14 6 -19 -6 -22 -4 -17 9 4 9 2 16 -3 16 -18 0 -59 -23 -55 -31 3 -4 -5 -5
-17 -1 -13 3 -19 1 -14 -6 4 -7 -18 -10 -71 -8 -43 2 -85 -1 -94 -5 -9 -5 -44
-10 -77 -11 -33 -2 -58 -6 -56 -9 2 -4 -4 -10 -13 -13 -9 -4 -20 -2 -23 5 -5
7 -10 8 -14 1 -8 -13 -35 -9 -46 7 -5 9 -10 10 -14 2 -9 -14 -27 -14 -24 0 5
18 -51 22 -58 4 -8 -21 -25 -19 -18 3 5 14 3 14 -10 -2 -12 -15 -16 -16 -16
-5 0 12 -2 12 -9 0 -6 -10 -17 -11 -37 -6 -38 9 -163 12 -158 3 2 -4 0 -9 -6
-13 -5 -3 -10 -2 -10 4 0 6 -7 8 -15 5 -8 -4 -15 -2 -15 4 0 6 -13 7 -35 2
-19 -4 -35 -4 -35 0 0 4 -7 11 -16 14 -11 4 -15 2 -11 -7 3 -8 -3 -13 -14 -13
-11 0 -19 5 -19 10 0 5 -3 7 -6 4 -3 -4 -17 0 -31 7 -17 9 -32 11 -43 5 -10
-5 -45 -10 -78 -11 -34 -1 -59 -6 -56 -10 3 -5 -4 -9 -15 -9 -12 0 -21 6 -21
13 0 9 -2 9 -8 -1 -7 -10 -15 -10 -36 -2 -15 5 -38 10 -52 10 -13 0 -24 4 -24
8 0 4 -27 9 -60 9 -52 1 -60 -1 -60 -18 0 -16 -7 -18 -55 -16 -30 1 -55 6 -55
10 0 5 -4 5 -10 2 -5 -3 -10 -1 -10 5 0 7 7 10 15 6 8 -3 15 -2 15 3 0 11 -85
22 -105 15 -8 -4 -21 -2 -28 3 -6 5 -19 9 -27 8 -8 -1 -23 -3 -32 -3 -10 -1
-18 -8 -18 -16 0 -19 -40 -32 -50 -16 -6 9 -9 9 -13 -1 -3 -9 -6 -6 -6 7 -1
11 4 25 11 32 9 9 9 12 0 12 -7 0 -12 -4 -12 -9 0 -4 -10 -7 -22 -7 -13 1 -28
-2 -34 -6 -6 -5 -20 -5 -30 -1 -17 6 -17 8 5 13 14 3 26 11 29 19 3 10 0 11
-18 1 -12 -7 -20 -8 -16 -2 3 5 -1 12 -8 15 -8 3 -17 1 -20 -6 -3 -8 -5 -8 -5
1 -1 10 -5 9 -17 -3 -9 -9 -19 -13 -22 -10 -4 3 0 11 8 16 12 8 11 9 -5 7 -11
-1 -26 1 -32 5 -9 5 -13 2 -13 -8 0 -10 -5 -14 -12 -10 -7 4 -5 0 5 -8 26 -22
21 -29 -20 -25 -24 2 -37 8 -35 16 1 6 -3 12 -9 12 -6 0 -9 -7 -6 -15 5 -11 0
-13 -26 -8 -37 7 -60 23 -33 23 9 0 14 5 11 10 -4 6 -11 8 -16 5 -5 -4 -9 22
-9 60 0 112 18 105 -268 105 -180 0 -251 -3 -260 -12z m-462 -128 c0 -5 -5
-10 -11 -10 -5 0 -7 5 -4 10 3 6 8 10 11 10 2 0 4 -4 4 -10z m-416 -89 c-2 -2
-15 -1 -29 3 -26 7 -35 41 -12 49 11 3 49 -43 41 -52z m523 53 c-3 -3 -12 -4
-19 -1 -8 3 -5 6 6 6 11 1 17 -2 13 -5z m-636 -44 l24 -20 -35 3 c-19 2 -34 6
-32 10 1 4 2 12 2 17 0 16 16 12 41 -10z m1720 4 c10 -13 10 -17 -2 -25 -19
-12 -25 -11 -39 6 -10 13 -9 15 11 15 19 0 21 2 9 10 -8 5 -10 10 -4 10 6 0
17 -7 25 -16z m282 -11 c-7 -3 -13 -11 -13 -20 0 -20 -34 -12 -38 10 -2 9 2
17 8 17 6 0 8 -5 4 -12 -5 -8 2 -6 16 3 14 9 27 14 30 12 3 -3 -1 -8 -7 -10z
m-383 3 c0 -3 -4 -8 -10 -11 -5 -3 -10 -1 -10 4 0 6 5 11 10 11 6 0 10 -2 10
-4z m230 -6 c0 -5 -12 -10 -27 -9 l-28 1 25 8 c14 4 26 8 28 9 1 1 2 -3 2 -9z
m-1960 -30 c0 -5 -5 -10 -11 -10 -5 0 -7 5 -4 10 3 6 8 10 11 10 2 0 4 -4 4
-10z m60 1 c0 -5 -7 -12 -16 -15 -14 -5 -15 -4 -4 9 14 17 20 19 20 6z m3020
-1 c0 -5 -5 -10 -11 -10 -5 0 -7 5 -4 10 3 6 8 10 11 10 2 0 4 -4 4 -10z
m-2615 -10 c3 -5 -1 -10 -10 -10 -9 0 -13 5 -10 10 3 6 8 10 10 10 2 0 7 -4
10 -10z m-370 -10 c3 -6 -1 -7 -9 -4 -18 7 -21 14 -7 14 6 0 13 -4 16 -10z
m205 -14 c0 -10 -34 2 -38 13 -3 10 0 10 17 2 11 -7 21 -13 21 -15z m-14 -23
c-10 -11 -37 -12 -30 -2 3 5 12 9 21 9 9 0 13 -3 9 -7z m664 -13 c0 -5 -5 -10
-11 -10 -5 0 -7 5 -4 10 3 6 8 10 11 10 2 0 4 -4 4 -10z m50 -12 c0 -6 -6 -5
-15 2 -8 7 -15 14 -15 16 0 2 7 1 15 -2 8 -4 15 -11 15 -16z m114 13 c6 0 1
-7 -9 -15 -14 -10 -26 -11 -43 -5 -17 6 -29 6 -38 -2 -12 -9 -13 -9 -8 4 7 20
39 26 98 18z m-527 -7 c-3 -3 -12 -4 -19 -1 -8 3 -5 6 6 6 11 1 17 -2 13 -5z
m38 -4 c3 -5 -1 -10 -10 -10 -9 0 -13 5 -10 10 3 6 8 10 10 10 2 0 7 -4 10
-10z m-525 -10 c0 -5 -2 -10 -4 -10 -3 0 -8 5 -11 10 -3 6 -1 10 4 10 6 0 11
-4 11 -10z m891 -17 c13 -16 12 -17 -3 -4 -17 13 -22 21 -14 21 2 0 10 -8 17
-17z m-264 1 c-3 -3 -12 -4 -19 -1 -8 3 -5 6 6 6 11 1 17 -2 13 -5z m471 -1
c16 -4 20 -8 12 -13 -15 -9 -50 -1 -50 11 0 11 7 11 38 2z m86 -13 c-21 -8
-37 -3 -29 10 3 4 15 6 27 2 21 -5 21 -6 2 -12z m-1134 -10 c0 -5 -5 -10 -11
-10 -5 0 -7 5 -4 10 3 6 8 10 11 10 2 0 4 -4 4 -10z m1267 -6 c-3 -3 -12 -4
-19 -1 -8 3 -5 6 6 6 11 1 17 -2 13 -5z m-80 -20 c-3 -3 -12 -4 -19 -1 -8 3
-5 6 6 6 11 1 17 -2 13 -5z m150 -14 c-1 -20 -9 -25 -20 -13 -4 3 -2 12 4 20
15 18 18 17 16 -7z m121 -1 c-19 -13 -28 -11 -28 5 0 9 7 12 21 9 16 -4 17 -8
7 -14z m37 -9 c-3 -5 -14 -10 -23 -9 -14 0 -13 2 3 9 27 11 27 11 20 0z
m-1405 -205 c0 -5 4 -4 9 3 10 17 22 17 32 1 12 -19 1 -29 -32 -29 -21 0 -29
5 -29 17 0 12 -3 14 -11 6 -13 -13 -51 -5 -43 8 8 13 74 8 74 -6z m4115 -12
c-28 -20 -41 -16 -20 7 10 11 22 17 28 13 6 -4 3 -12 -8 -20z m55 17 c0 -5 -5
-10 -11 -10 -5 0 -7 5 -4 10 3 6 8 10 11 10 2 0 4 -4 4 -10z m-2022 -206 c224
-74 376 -270 397 -511 l7 -83 -501 0 -501 0 0 45 0 45 451 0 451 0 -7 43 c-26
157 -150 307 -303 369 -49 19 -75 23 -182 23 -123 0 -126 -1 -200 -36 -166
-80 -263 -217 -285 -404 -8 -74 14 -187 51 -263 41 -84 131 -173 218 -216 192
-95 410 -60 562 90 54 54 105 135 128 207 4 13 16 17 52 17 l47 0 -7 -32 c-3
-17 -22 -65 -42 -106 -64 -134 -198 -246 -354 -298 -69 -23 -242 -25 -315 -5
-183 51 -342 201 -407 383 -30 85 -32 265 -4 348 62 184 199 326 371 385 115
40 251 39 373 -1z m-1165 11 c65 -17 153 -69 185 -109 84 -108 100 -293 37
-434 -28 -64 -111 -153 -153 -166 -31 -10 -28 -18 22 -54 90 -65 153 -184 164
-309 l5 -63 -42 0 c-38 0 -41 2 -41 28 0 51 -36 157 -69 206 -38 56 -117 109
-196 133 l-56 17 3 41 3 40 55 6 c156 17 247 120 258 290 6 102 -16 168 -73
223 -68 66 -113 78 -312 84 l-173 4 0 -541 0 -542 -42 3 -43 3 -2 578 -2 577
207 0 c152 0 223 -4 265 -15z m2307 -17 c105 -37 166 -73 231 -138 103 -103
156 -256 146 -425 -11 -166 -59 -288 -155 -392 -130 -140 -232 -167 -662 -175
l-145 -2 -3 583 -2 583 257 -4 c248 -4 261 -5 333 -30z m658 -68 c6 0 12 -4
12 -10 0 -5 -6 -10 -14 -10 -7 0 -39 -11 -71 -25 -32 -14 -60 -24 -62 -21 -9
9 27 50 54 62 16 7 37 11 48 9 11 -3 26 -5 33 -5z m50 -40 c1 -16 -1 -30 -5
-30 -5 0 -19 -3 -33 -7 -22 -6 -24 -5 -11 10 7 9 10 17 5 17 -7 1 33 40 40 40
1 0 3 -13 4 -30z m106 -25 c3 -8 2 -15 -2 -15 -4 0 -24 -4 -44 -9 -47 -11 -49
1 -5 23 40 19 43 20 51 1z m-307 -10 c0 -8 -6 -15 -14 -15 -7 0 -16 -7 -19
-15 -4 -8 -10 -15 -15 -15 -4 0 -6 7 -3 15 4 9 -1 18 -11 21 -13 5 -14 9 -3
15 22 15 65 10 65 -6z m331 -37 c11 -14 10 -16 -7 -11 -12 3 -17 11 -14 19 3
8 6 14 7 12 1 -2 7 -11 14 -20z m-408 -8 c0 -5 -4 -10 -10 -10 -5 0 -10 5 -10
10 0 6 5 10 10 10 6 0 10 -4 10 -10z m184 -15 c-4 -8 -10 -12 -15 -9 -11 6 -2
24 11 24 5 0 7 -7 4 -15z m186 11 c0 -2 -7 -7 -16 -10 -8 -3 -12 -2 -9 4 6 10
25 14 25 6z m-180 -40 c0 -11 -19 -15 -25 -6 -3 5 1 10 9 10 9 0 16 -2 16 -4z
m204 -52 c3 -8 2 -12 -4 -9 -6 3 -10 10 -10 16 0 14 7 11 14 -7z m-84 -18 c0
-3 -4 -8 -10 -11 -5 -3 -10 -1 -10 4 0 6 5 11 10 11 6 0 10 -2 10 -4z m-4382
-41 c-3 -3 -9 2 -12 12 -6 14 -5 15 5 6 7 -7 10 -15 7 -18z m4320 -187 l18 23
12 -26 c15 -34 16 -32 -13 -37 -14 -3 -25 -1 -25 6 0 6 -5 3 -11 -6 -11 -20
-69 -25 -69 -7 0 5 5 7 12 3 6 -4 8 -3 4 4 -3 6 -1 22 6 37 l12 26 18 -23 18
-23 18 23z m59 -20 c-3 -7 -5 -2 -5 12 0 14 2 19 5 13 2 -7 2 -19 0 -25z
m-4252 -8 c3 -5 1 -10 -4 -10 -6 0 -11 5 -11 10 0 6 2 10 4 10 3 0 8 -4 11
-10z m53 -2 c19 -19 14 -30 -8 -18 -11 6 -20 15 -20 20 0 14 14 12 28 -2z m82
-238 c0 -5 -9 -9 -20 -7 -31 5 -36 17 -7 17 15 0 27 -4 27 -10z m-45 -22 c35
-16 31 -27 -6 -23 -37 5 -43 10 -34 24 8 14 8 14 40 -1z m-50 -48 c3 -5 1 -10
-4 -10 -6 0 -11 5 -11 10 0 6 2 10 4 10 3 0 8 -4 11 -10z m230 -20 c3 -5 -1
-10 -9 -10 -9 0 -16 5 -16 10 0 6 4 10 9 10 6 0 13 -4 16 -10z m-1 -41 c-6
-11 -24 -2 -24 11 0 5 7 7 15 4 8 -4 12 -10 9 -15z m-184 -19 c0 -5 -5 -10
-11 -10 -5 0 -7 5 -4 10 3 6 8 10 11 10 2 0 4 -4 4 -10z m60 -34 c0 -3 -4 -8
-10 -11 -5 -3 -10 -1 -10 4 0 6 5 11 10 11 6 0 10 -2 10 -4z m14 -257 c8 12
46 10 46 -1 0 -14 -28 -21 -55 -14 -14 4 -25 11 -25 17 0 8 4 8 14 0 9 -8 16
-8 20 -2z m106 -14 c16 -10 1 -25 -25 -25 -25 0 -40 14 -30 29 5 10 37 7 55
-4z m4080 0 c-7 -8 -20 -15 -29 -15 -13 1 -13 3 3 15 26 19 42 19 26 0z m50 5
c0 -5 -5 -10 -11 -10 -5 0 -7 5 -4 10 3 6 8 10 11 10 2 0 4 -4 4 -10z m-660
-405 c0 -8 -7 -15 -15 -15 -26 0 -18 20 13 29 1 1 2 -6 2 -14z m-3010 -28 c0
-8 -3 -17 -7 -20 -9 -9 -34 13 -27 24 8 14 34 11 34 -4z m40 4 c0 -12 -20 -25
-27 -18 -7 7 6 27 18 27 5 0 9 -4 9 -9z m1745 -1 c3 -5 1 -10 -4 -10 -6 0 -11
5 -11 10 0 6 2 10 4 10 3 0 8 -4 11 -10z m75 0 c0 -5 -4 -10 -10 -10 -5 0 -10
5 -10 10 0 6 5 10 10 10 6 0 10 -4 10 -10z"/>
<path d="M4840 4000 l0 -502 183 7 c100 3 207 10 237 15 218 33 348 183 379
437 14 115 -21 285 -69 333 -10 10 -16 20 -14 23 2 2 -3 10 -12 18 -14 11 -19
10 -35 -11 -10 -14 -19 -21 -19 -16 0 5 7 18 16 28 13 14 14 21 5 32 -24 29
-112 78 -183 103 -67 23 -91 26 -280 31 l-208 4 0 -502z m586 302 c-8 -8 -19
-11 -26 -7 -14 9 1 22 26 22 13 0 13 -2 0 -15z"/>
<path d="M6000 5336 c0 -8 -6 -16 -12 -19 -7 -2 -10 -7 -7 -11 7 -8 39 21 39
35 0 5 -4 9 -10 9 -5 0 -10 -6 -10 -14z"/>
<path d="M2250 5320 c-10 -6 -11 -10 -2 -10 22 0 27 -2 42 -13 8 -6 6 -2 -4
11 -11 12 -20 22 -20 22 -1 0 -8 -5 -16 -10z"/>
<path d="M2688 5283 c7 -3 16 -2 19 1 4 3 -2 6 -13 5 -11 0 -14 -3 -6 -6z"/>
<path d="M2245 5250 c-3 -5 -1 -10 4 -10 6 0 11 5 11 10 0 6 -2 10 -4 10 -3 0
-8 -4 -11 -10z"/>
<path d="M3490 5230 c0 -13 11 -13 30 0 12 8 11 10 -7 10 -13 0 -23 -4 -23
-10z"/>
<path d="M2336 5197 c3 -10 9 -15 12 -12 3 3 0 11 -7 18 -10 9 -11 8 -5 -6z"/>
<path d="M3847 5193 c-4 -3 -7 -13 -7 -22 1 -13 3 -13 11 2 11 19 8 33 -4 20z"/>
<path d="M4090 5176 c0 -2 7 -6 15 -10 8 -3 15 -1 15 4 0 6 -7 10 -15 10 -8 0
-15 -2 -15 -4z"/>
<path d="M4130 5169 c0 -10 27 -19 34 -12 12 12 5 22 -14 20 -11 -1 -20 -4
-20 -8z"/>
<path d="M1756 5099 c3 -5 12 -9 21 -9 19 0 9 13 -12 16 -8 1 -13 -2 -9 -7z"/>
<path d="M1720 4836 c0 -2 9 -6 20 -9 11 -3 20 -1 20 4 0 5 -9 9 -20 9 -11 0
-20 -2 -20 -4z"/>
<path d="M1770 4820 c0 -13 20 -13 40 0 12 8 9 10 -12 10 -16 0 -28 -4 -28
-10z"/>
<path d="M1310 4739 c0 -12 25 -22 41 -17 6 2 0 9 -15 16 -16 7 -26 8 -26 1z"/>
<path d="M1502 4682 c-7 -5 -14 -18 -17 -30 -3 -19 -1 -20 16 -9 10 6 19 20
19 29 0 20 0 21 -18 10z"/>
<path d="M1700 4580 c-12 -8 -10 -10 8 -10 13 0 20 4 17 10 -7 12 -6 12 -25 0z"/>
<path d="M6265 4330 c-3 -5 -2 -10 4 -10 5 0 13 5 16 10 3 6 2 10 -4 10 -5 0
-13 -4 -16 -10z"/>
<path d="M6246 4060 c-19 -6 -19 -7 -1 -13 20 -8 29 -4 24 11 -2 5 -13 6 -23
2z"/>
<path d="M6298 4063 c6 -2 18 -2 25 0 6 3 1 5 -13 5 -14 0 -19 -2 -12 -5z"/>
<path d="M6190 4050 c0 -5 5 -10 11 -10 5 0 7 5 4 10 -3 6 -8 10 -11 10 -2 0
-4 -4 -4 -10z"/>
<path d="M6700 3964 c-24 -13 -24 -14 -3 -14 12 0 25 5 28 10 4 6 11 7 17 4 7
-4 8 -2 4 4 -9 14 -14 14 -46 -4z"/>
<path d="M1725 3620 c-3 -5 -1 -10 4 -10 6 0 11 5 11 10 0 6 -2 10 -4 10 -3 0
-8 -4 -11 -10z"/>
<path d="M1730 3380 c-12 -8 -10 -10 8 -10 13 0 20 4 17 10 -7 12 -6 12 -25 0z"/>
<path d="M1775 3370 c-4 -6 3 -10 14 -10 25 0 27 6 6 13 -8 4 -17 2 -20 -3z"/>
<path d="M1320 3275 c14 -17 36 -20 45 -5 3 5 0 7 -8 4 -8 -3 -18 -1 -22 5 -3
6 -11 11 -17 11 -7 0 -6 -6 2 -15z"/>
<path d="M1695 3120 c-3 -5 -2 -10 4 -10 5 0 13 5 16 10 3 6 2 10 -4 10 -5 0
-13 -4 -16 -10z"/>
<path d="M1650 2956 c0 -9 30 -14 35 -6 4 6 -3 10 -14 10 -12 0 -21 -2 -21 -4z"/>
<path d="M2306 2912 c-2 -4 4 -8 15 -8 10 0 19 4 19 8 0 4 -6 8 -14 8 -8 0
-17 -4 -20 -8z"/>
<path d="M2158 2823 c7 -3 16 -2 19 1 4 3 -2 6 -13 5 -11 0 -14 -3 -6 -6z"/>
<path d="M1567 2553 c-4 -3 -7 -46 -7 -95 l0 -88 55 0 c30 0 55 5 55 10 0 6
-19 10 -43 10 -43 0 -43 1 -42 33 1 29 4 32 38 35 46 4 49 22 4 22 -41 0 -45
4 -39 35 4 22 10 25 43 25 22 0 39 5 39 10 0 11 -93 14 -103 3z"/>
<path d="M1950 2465 c0 -111 18 -130 22 -23 l3 71 48 -71 c45 -69 66 -87 68
-59 1 11 0 135 -1 167 0 10 -3 11 -11 3 -6 -6 -9 -38 -7 -77 1 -36 1 -66 -2
-66 -3 0 -26 34 -53 75 -26 41 -52 75 -57 75 -6 0 -10 -40 -10 -95z"/>
<path d="M2360 2550 c0 -5 14 -10 30 -10 l30 0 0 -85 c0 -50 4 -85 10 -85 6 0
10 35 10 85 l0 85 30 0 c17 0 30 5 30 10 0 6 -30 10 -70 10 -40 0 -70 -4 -70
-10z"/>
<path d="M2770 2465 l0 -95 50 0 c28 0 50 5 50 10 0 6 -18 10 -40 10 -39 0
-40 1 -40 35 0 34 1 35 41 35 24 0 38 4 34 10 -3 6 -22 10 -41 10 -31 0 -34 2
-34 30 0 28 2 30 40 30 22 0 40 5 40 10 0 6 -22 10 -50 10 l-50 0 0 -95z"/>
<path d="M3150 2465 c0 -57 4 -95 10 -95 6 0 10 15 10 33 0 19 3 37 6 40 11
11 43 -12 59 -43 9 -17 22 -30 31 -30 11 0 9 8 -10 36 l-25 37 20 26 c36 50 3
90 -73 91 l-28 0 0 -95z m78 66 c8 -4 12 -19 10 -32 -2 -19 -10 -25 -35 -27
-32 -3 -33 -2 -33 32 0 31 3 36 23 36 12 0 28 -4 35 -9z"/>
<path d="M3520 2550 c0 -5 14 -10 30 -10 l30 0 0 -85 c0 -109 18 -112 22 -2 3
81 3 82 31 85 55 7 25 22 -43 22 -40 0 -70 -4 -70 -10z"/>
<path d="M3956 2551 c-8 -13 -66 -165 -66 -173 0 -19 20 -6 26 17 5 22 12 25
48 25 36 0 45 -4 54 -25 6 -14 16 -25 21 -25 5 0 -7 43 -27 95 -33 90 -44 106
-56 86z m30 -79 c6 -30 4 -32 -20 -32 -30 0 -30 2 -14 47 14 37 25 33 34 -15z"/>
<path d="M4317 2553 c-11 -11 -8 -183 3 -183 6 0 10 38 10 95 0 95 -1 101 -13
88z"/>
<path d="M4620 2466 c0 -57 4 -96 10 -96 6 0 10 33 10 78 l0 77 51 -77 c29
-43 58 -78 65 -78 11 0 14 21 14 95 0 57 -4 95 -10 95 -6 0 -10 -34 -10 -82
l0 -83 -53 79 c-28 44 -58 81 -64 84 -10 3 -13 -20 -13 -92z"/>
<path d="M5060 2465 c0 -64 4 -95 11 -95 8 0 10 25 7 80 -3 44 -4 79 -2 78 1
-2 16 -37 32 -78 16 -41 34 -76 40 -78 5 -1 23 30 38 70 l29 73 3 -72 c4 -108
22 -89 22 22 0 118 -15 125 -54 25 -15 -38 -31 -72 -35 -74 -4 -3 -19 29 -35
70 -39 107 -56 100 -56 -21z"/>
<path d="M5530 2465 l0 -95 50 0 c28 0 50 5 50 10 0 6 -18 10 -40 10 -39 0
-40 1 -40 35 0 34 1 35 40 35 22 0 40 5 40 10 0 6 -18 10 -41 10 -38 0 -40 1
-37 28 3 23 8 27 41 30 55 5 45 22 -13 22 l-50 0 0 -95z"/>
<path d="M5917 2553 c-11 -10 -8 -183 3 -183 5 0 10 35 12 78 l3 77 49 -77
c27 -43 55 -78 63 -78 10 0 13 23 13 97 0 112 -17 118 -22 8 l-3 -70 -49 78
c-47 75 -56 84 -69 70z"/>
<path d="M6325 2551 c-3 -5 9 -11 27 -13 l33 -3 3 -82 c2 -49 7 -83 13 -83 6
0 10 10 9 23 -1 12 -2 50 -1 85 l1 62 31 0 c17 0 28 4 24 10 -8 13 -132 13
-140 1z"/>
<path d="M8012 1510 c0 -14 2 -19 5 -12 2 6 2 18 0 25 -3 6 -5 1 -5 -13z"/>
</g>
</svg>
